<svg xmlns="http://www.w3.org/2000/svg" viewBox="0 0 86 95">
  <path
    d="M57.897 94.336c-2.05.037-3.615-.003-5.461 0-8.067.015-16.09.037-24.59.037-.03-4.204-.076-8.632-.052-12.451.03-4.15-.018-7.844.014-12.002.081-9.208.081-17.952.081-26.716l-14.518-.106-8.83.016c-1.195-.014-2.61 0-3.936 0l1.567-1.685 1.567-1.685 3.134-3.37c9.111-9.06 17.634-17.93 26.742-26.992C36.62 6.416 39.359 3.676 42.08.858c.61-.618.602-.622 1.266.015a136.73 136.73 0 0 1 6.183 5.965c2.859 3.012 5.508 5.758 8.242 8.418 8.66 8.426 25.803 25.823 25.803 25.823l1.8 1.944s-11.492.023-16.835-.017c0 0-7.14-.071-10.567-.071 0 8.323 0 15.887-.07 23.915-.024 6.484.023 12.505-.005 18.965-.025 2.813-.05 6.147 0 8.521Z" />
</svg>