<svg xmlns="http://www.w3.org/2000/svg" viewBox="0 0 2000 2000" fill="rgba(54,56,62,0.73)">
  <path fill-rule="evenodd"
    d="m992.482 251.716-9.019.353-2.374 6.215c-1.306 3.419-10.973 26.241-21.482 50.716L940.5 353.5l-.273 79.25c-.151 43.587-.601 79.257-1 79.266-.4.01-5.339.853-10.977 1.875L918 515.749v-38.793c0-21.336-.273-39.504-.607-40.374-.449-1.17-2.001-1.582-5.961-1.582h-5.354l-.289-8.75-.289-8.75-18.548-.271-18.547-.272-7.838 14.772a10249.582 10249.582 0 0 1-15.757 29.55c-12.004 22.402-11.299 19.436-11.345 47.721-.021 13.475-.135 25.266-.252 26.202-.295 2.358-7.158 6.87-22.041 14.488-6.97 3.568-16.272 8.874-20.672 11.79-4.4 2.917-14.255 8.756-21.9 12.976-17.331 9.567-21.685 12.524-39.112 26.566-31.106 25.063-41.925 35.797-62.843 62.348-21.12 26.809-33.913 46.535-47.1 72.63-23.249 46.003-36.763 90.726-43.209 143-2.917 23.649-2.493 70.225.936 103 2.606 24.904 2.869 26.272 11.232 58.5 4.71 18.15 10.162 37.682 12.115 43.404 9.845 28.847 30.391 69.318 47.797 94.149 4.529 6.462 9.547 14.254 11.15 17.316l2.914 5.566-4.395 4.478-4.394 4.478 7.061 8.304c3.883 4.568 8.223 9.392 9.644 10.72l2.584 2.415 4.939-4.165c2.717-2.291 5.316-4.165 5.777-4.165.46 0 5.941 5.119 12.18 11.376l11.344 11.376-3.636 5.374-3.635 5.374 2.775 2.299c1.527 1.265 10.817 8.392 20.645 15.837l17.869 13.537 3.631-3.519 3.631-3.52 23.5 14.525c35.702 22.067 51.055 29.225 94 43.823 23.881 8.118 35.131 10.822 73.5 17.662l24 4.279 31.5.03c34.844.032 38.361-.315 76.207-7.522 34.127-6.499 57.47-13.11 86.666-24.543 17.987-7.043 43.673-19.204 57.52-27.232 4.892-2.836 9.004-5.156 9.138-5.156.134 0 2.814 3.181 5.955 7.069 3.561 4.407 6.232 6.869 7.094 6.539 1.707-.655 35.42-25.604 35.42-26.212 0-.241-2.323-3.395-5.162-7.008-2.871-3.652-4.731-6.862-4.19-7.229.534-.362 2.611-1.934 4.614-3.491 4.443-3.455 5.909-3.112 12.355 2.891 2.651 2.468 5.284 4.301 5.851 4.074.568-.228 7.375-6.012 15.127-12.854 7.752-6.842 18.686-16.197 24.298-20.789l10.202-8.35-7.711-7.757c-7.119-7.161-7.603-7.907-6.298-9.708.778-1.073 5.447-6.967 10.376-13.098 21.423-26.649 43.285-63.083 57.081-95.128 47.685-110.761 43.891-242.924-10.117-352.449-15.801-32.044-29.538-53.329-56.159-87.021-8.683-10.988-17.944-22.79-20.582-26.225-6.752-8.794-26.351-26.261-38.185-34.031-5.5-3.612-18.325-12.511-28.5-19.777-21.008-15.002-30.186-20.76-41.556-26.072-10.575-4.939-15.446-9.017-19.165-16.04-6.403-12.095-6.495-12.872-6.725-56.834-.244-46.407 1.768-37.692-15.584-67.5-5.923-10.175-13.655-23.675-17.181-30-7.512-13.471-5.974-12.709-26.009-12.882l-13.72-.118-.28 12.629-.28 12.629-5.5 1.657-5.5 1.656-.259 49.606-.26 49.606-4.101 4.101c-3.325 3.326-3.982 4.575-3.471 6.609.744 2.966 1.236 2.905-7.457.928l-6.943-1.579-.254-104.671-.255-104.671-6.22-.297-6.219-.297-.281-12.203-.28-12.203-7.818-.293-7.817-.294.222-13.468c.123-7.408.04-13.629-.182-13.825-.685-.604-30.869-1.279-40.423-.904m-306.997 305.14c-7.142 3.696-19.51 10.577-27.485 15.293-7.975 4.715-19.675 11.396-26 14.846-23.533 12.835-23.484 12.785-40.934 41.84-45.048 75.006-76.273 166.241-83.567 244.165-.85 9.075-1.979 20.325-2.51 25-1.751 15.42-2.323 54.521-1.068 73 6.405 94.281 38.381 181.903 92.875 254.5 34.151 45.495 71.702 81.305 117.73 112.269 62.544 42.076 142.443 73.016 207.357 80.297 9.689 1.086 21.31 2.652 25.824 3.479l8.207 1.503 4.793-4.604c6.373-6.123 15.111-11.823 30.543-19.925 7.012-3.682 12.75-7.041 12.75-7.464 0-.423-9.112-4.163-20.25-8.31-21.859-8.14-24.72-8.779-59.25-13.225-38.644-4.977-53.39-8.402-83-19.277-63.922-23.477-114.298-54.86-160.9-100.236-52.838-51.447-87.499-106.886-110.666-177.007-21.947-66.43-26.793-125.249-17.341-210.5 6.105-55.062 24.758-115.644 53.881-175 19.485-39.713 47.081-81.564 79.154-120.044 14.095-16.912 13.724-16.438 13.25-16.911-.224-.224-6.251 2.616-13.393 6.311m392.558-2.392c-2.28 1.905-7.835 5.697-12.345 8.427-11.437 6.923-15.865 11.018-20.951 19.371a1057.268 1057.268 0 0 1-7.747 12.522c-2.376 3.758-3.468 6.815-3.781 10.589l-.44 5.305 5.861 2.302c11.005 4.323 29.36 14.409 29.36 16.134 0 .899-.675 3.548-1.5 5.886s-1.5 4.568-1.5 4.954c0 .63 8.784 3.046 11.076 3.046.508 0 .93-1.913.938-4.25.023-7.293.545-7.923 11.694-14.11l10.561-5.859-.599-6.141c-.329-3.377-.893-8.853-1.254-12.17l-.655-6.029 5.489-1.731c5.395-1.7 5.528-1.835 7.701-7.795 1.216-3.336 3.448-7.449 4.96-9.141 3.424-3.833 5.488-3.467 14.246 2.528 8.291 5.673 11.752 11.839 10.107 18.002-.991 3.716-.845 4.566 1.496 8.658 1.428 2.496 2.717 4.702 2.865 4.902.479.647 7.334-3.968 12.675-8.533l5.2-4.443.713 7.673c1.3 13.988 6.848 27.683 14.939 36.875 3.678 4.178 6.828 11.593 6.825 16.064-.001 1.545-1.648 2.667-7.239 4.933-12.884 5.222-21.55 7.566-28.026 7.581l-6.212.014 7.267 3.961c3.996 2.179 8.938 5.098 10.982 6.486 2.043 1.389 4.194 2.525 4.78 2.525.586 0 2.823-1.8 4.971-4s4.248-4 4.665-4c2.167 0 12.017 7.923 13.376 10.761 1.927 4.02 1.268 5.235-2.85 5.253-1.755.007-4.201.284-5.434.615-2.072.555-1.881.873 2.5 4.157 7.775 5.829 17.227 14.051 25.988 22.608l8.246 8.053 6.082-5.974c11.158-10.959 12.081-12.525 13.18-22.368l.978-8.761 6.385-2.387c3.511-1.313 6.384-2.63 6.384-2.926 0-.295-1.612-2.786-3.582-5.534-3.912-5.456-7.418-11.817-7.418-13.457 0-1.604 5.728-1.231 9.3.605 1.76.905 6.11 4.055 9.667 7 3.558 2.945 6.82 5.355 7.25 5.355.431 0 .783-2.155.783-4.788 0-4.41-.336-5.069-4.25-8.335-7.273-6.071-7.735-6.179-16.649-3.903-4.364 1.114-8.631 2.026-9.482 2.026-2.667 0-3.827-3.922-4.797-16.228-.516-6.553-1.308-12.895-1.758-14.093-.743-1.978-1.033-1.741-3.141 2.571-1.277 2.612-2.666 4.75-3.087 4.75-1.239 0-3.103-4.074-4.797-10.485l-1.582-5.986-9.479-2.075c-12.626-2.765-16.599-4.13-22.113-7.599-4.768-3-10.494-10.029-9.491-11.651.311-.503 3.274-1.902 6.586-3.109l6.021-2.195 6.712 2.014c3.692 1.107 6.888 1.839 7.101 1.625.991-.991-10.733-8.287-24.983-15.546-8.629-4.396-15.93-7.993-16.224-7.993-.295 0-1.276 1.462-2.182 3.25-.905 1.788-2.347 4.049-3.204 5.025-1.453 1.657-1.812 1.288-5.366-5.5-2.096-4.001-4.73-8.034-5.856-8.962-4.668-3.85-52.647-19.813-59.551-19.813-1.231 0-4.105 1.559-6.385 3.464m223.634 3.889c1.553 1.845 7.503 8.907 13.223 15.695 30.301 35.958 59.88 81.212 80.2 122.699 21.479 43.855 40.97 102.567 48.359 145.669 4.015 23.417 7.404 60.185 8.212 89.084 1.369 48.962-6.086 99.197-21.592 145.5-22.783 68.035-54.456 120.697-101.567 168.874-36.201 37.02-70.211 62.231-114.873 85.153-41.456 21.276-70.725 31.686-116.639 41.482-6.875 1.466-24.125 5.528-38.333 9.026l-25.833 6.359-20.667 9.965c-11.367 5.481-23.606 11.282-27.197 12.891-3.592 1.609-8.25 4.435-10.351 6.28-3.816 3.35-81.619 104.702-81.619 106.322 0 .239.563.665 1.25.948.688.283 4.686 2.096 8.885 4.029l7.636 3.516 8.25-9.172c4.538-5.045 14.038-15.141 21.113-22.434l12.862-13.262 14.752-6.991c8.114-3.845 17.227-8.292 20.252-9.884 8.609-4.528 24.222-11.378 48.319-21.197 12.2-4.972 29.606-12.561 38.681-16.866 17.511-8.306 27.819-11.954 48-16.987 47.513-11.847 93.838-30.835 137.5-56.359 58.892-34.426 112.998-84.914 152.921-142.693 33.177-48.016 55.141-97.627 69.508-157 7.551-31.205 11.365-58.522 13.276-95.086 1.031-19.744.959-25.342-.572-44.5-2.517-31.468-6.294-66.18-8.588-78.919-12.518-69.515-40.845-143.467-79.841-208.44-14.561-24.26-17.67-27.855-29.5-34.101-3.412-1.802-18.201-10.154-32.864-18.56-23.975-13.744-43.792-24.394-45.393-24.394-.326 0 .678 1.509 2.23 3.353M789.5 630.799c-6.6 3.258-19.416 10.036-28.48 15.062-9.064 5.027-17.26 9.139-18.214 9.139-1.608 0-1.588-.343.271-4.679l2.006-4.68-2.51-2.07c-1.38-1.139-2.977-3.346-3.548-4.905l-1.039-2.833-8.743 8.18c-4.809 4.499-8.743 8.62-8.743 9.158 0 .537 15.043 15.994 33.429 34.348l33.429 33.37 7.571-6.807c9.943-8.94 26.551-22.096 37.346-29.582 4.758-3.3 8.668-6.556 8.688-7.235.02-.679 1.162-5.117 2.537-9.862s2.5-10.824 2.5-13.509c0-4.671-.272-5.149-6.25-10.998-11.339-11.095-21.387-16.603-31.902-17.487-6.181-.519-6.664-.377-18.348 5.39m-89.118 42.574c-58.018 65.306-94.38 153.323-98.068 237.377l-.625 14.25H702l.001-7.25c.002-10.204 2.676-32.104 5.639-46.182 10.133-48.15 30.086-90.252 61.4-129.557l7.774-9.758-34.275-33.877-34.274-33.876-7.883 8.873m319.443 10.136c-.28.279-2.942.71-5.917.957-6.089.506-9.111 3.147-10.911 9.534-2.09 7.417-1.476 9.188 4.503 13 3.019 1.925 5.492 3.858 5.495 4.296.003.438-2.111 5.145-4.696 10.46-3.487 7.167-4.81 11.161-5.121 15.457-.39 5.4.686 8.787 2.794 8.787.4 0 4.833-2.475 9.851-5.5 5.018-3.025 9.477-5.5 9.909-5.5.432 0 2.135 2.24 3.783 4.978l2.998 4.978 7.655-5.056 7.655-5.055-2.912-7.06c-1.601-3.883-2.911-7.448-2.911-7.923 0-.474 1.494-.862 3.32-.862 2.349 0 4.516 1.024 7.409 3.5 2.249 1.925 4.706 3.5 5.461 3.5.755 0 4.039-2.695 7.298-5.988 7.142-7.217 8.371-5.726-14.208-17.24l-16.219-8.272-.648-4.276c-.407-2.688-1.429-4.822-2.753-5.75-1.968-1.378-10.709-2.092-11.835-.965M1281 695.941c0 3.179-.273 7.773-.607 10.21-.565 4.117-.414 4.518 2.129 5.677 1.505.686 2.856 1.118 3.002.959.147-.158.785-3.662 1.419-7.787.952-6.197 1.622-7.876 3.855-9.663l2.702-2.163-3-.684a329.556 329.556 0 0 1-6.25-1.506l-3.25-.823v5.78m-139.095 4.945c2.391 2.857 4.179 5.312 3.972 5.456-.208.144-4.98 2.196-10.606 4.561l-10.228 4.3-4.7-1.602c-5.022-1.711-9.17-2.029-10.922-.836-.593.404-2.393 3.192-4 6.195-4.139 7.736-12 15.312-26.421 25.463-6.875 4.84-15.243 11.48-18.595 14.756l-6.096 5.957.475 7.406c.664 10.339-2.037 15.578-14.93 28.964l-9.874 10.252 8.26 2.576c9.875 3.081 26.513 11.065 34.842 16.722 3.309 2.246 9.373 7.013 13.476 10.591l7.461 6.507 39.166-38.556c21.541-21.206 45.264-44.933 52.718-52.727l13.552-14.17-9.449-8.959c-10.385-9.846-27.089-22.719-39.506-30.445-13.177-8.198-13.522-8.295-8.595-2.411m-306.791 11.879c-7.362 5.354-17.184 13.335-21.826 17.735l-8.441 8 5.915 5.809 5.916 5.809 8.401-10.309c4.62-5.67 12.267-14.584 16.993-19.809 8.092-8.945 8.567-9.719 8.151-13.25-.243-2.062-.73-3.743-1.082-3.735-.353.008-6.665 4.395-14.027 9.75m428.032 15.937c-.63 4.914-1.146 9.375-1.146 9.915 0 .54 1.543 1.539 3.429 2.221 3.659 1.323 3.865 1.808 5.133 12.066l.668 5.405-7.057-.656c-6.379-.593-16.867-2.541-23.022-4.276-2.004-.565-1.403.717 4.091 8.73 11.669 17.021 19.808 31.892 28.947 52.887l1.521 3.495 2.027-3.995c1.115-2.197 3.934-8.882 6.265-14.856 4.144-10.623 4.236-11.117 4.17-22.5l-.068-11.638-5.34-5.51c-3.831-3.952-6.023-7.346-7.752-12-1.326-3.57-3.204-7.847-4.173-9.506-.968-1.659-2.502-5.934-3.407-9.5-2.528-9.952-3.042-9.986-4.286-.282M491 784.606c-16.775 20.649-31.559 39.508-32.854 41.908-4.304 7.98-10.246 55.605-12.34 98.904-1.715 35.475.807 77.714 6.754 113.082 4.897 29.124 14.126 62.825 26.397 96.4 18.896 51.699 45.023 97.477 82.528 144.6 65.668 82.508 164.605 148.404 271.015 180.509 32.016 9.659 65.216 16.991 76.937 16.991 3.348 0 4.709-1.016 15.064-11.25 12.534-12.388 13.329-13.969 12.07-24.013l-.657-5.237-15.207-2.89c-56.445-10.729-99.081-23.919-142.962-44.228-58.199-26.936-116.419-68.791-156.198-112.292-62.412-68.252-101.623-142.989-120.104-228.922-7.355-34.204-10.417-60.483-11.144-95.668-1.327-64.19 9.688-138.121 29.088-195.25 1.914-5.638 3.173-10.236 2.797-10.219-.376.018-14.409 16.926-31.184 37.575m294.851-24.339c-28.417 38.013-47.332 79.724-56.221 123.976-2.148 10.695-3.112 17.541-5.138 36.507l-.454 4.25h67.481c75.86 0 69.179.817 65.387-7.996-1.397-3.248-4.067-6.584-8.026-10.027-6.755-5.876-8.822-9.452-13.515-23.38-4.641-13.776-5.527-14.962-10.716-14.326-2.282.279-4.939.832-5.904 1.228-2.562 1.05-6.624-8.339-7.421-17.151-.616-6.809-.659-6.889-7.472-14.101-7.82-8.278-7.614-7.331-5.351-24.591 1.753-13.376 6.154-31.455 9.878-40.578 1.441-3.533 2.621-6.918 2.621-7.524 0-1.368-15.179-16.56-16.522-16.537-.538.01-4.42 4.622-8.627 10.25m369.757 47.026-52.892 52.223 3.507 5.492c10.535 16.499 15.488 31 19.377 56.742l.491 3.25H1275l-.005-4.25c-.011-8.032-4.031-32.271-8.047-48.507-7.882-31.874-18.893-58.532-35.335-85.555-6.272-10.309-21.557-31.698-22.613-31.644-.275.014-24.302 23.526-53.392 52.249m327.907-34.246c12.934 40.752 20.01 80.691 25.06 141.453 3.888 46.792-2.093 109.768-15.145 159.451-21.369 81.344-63.065 154.714-122.418 215.413-22.668 23.182-40.799 38.763-66.482 57.132-53.534 38.287-114.059 65.992-179.406 82.123-12.306 3.038-25.269 6.417-28.805 7.51-12.249 3.783-90.862 34.618-100.319 39.349-13.82 6.913-24.801 15.143-22.774 17.068.151.143 5.899-.362 12.774-1.122 6.875-.76 32.75-3.177 57.5-5.372 62.503-5.542 64.525-5.764 77.891-8.543 29.569-6.149 73.743-20.435 106.365-34.4 78.001-33.39 152.588-88.447 204.713-151.109 24.564-29.53 50.83-69.637 67.823-103.561 15.299-30.544 32.415-79.311 41.217-117.439 12.309-53.32 16.495-126.433 9.962-174-.794-5.775-1.883-16.35-2.421-23.5-1.012-13.439-2.614-20.636-5.632-25.298-4.458-6.887-59.175-77.202-60.076-77.202-.262 0-.184.921.173 2.047M1307.5 819.594c-1.1.269-7.906 1.901-15.125 3.629l-13.125 3.141 2.897 8.568c7.252 21.443 12.941 49.837 15 74.864l1.251 15.204h4.228c4.076 0 4.34-.197 7.374-5.5 1.854-3.241 3.835-5.497 4.823-5.493 3.978.017 18.961 4.273 25.532 7.253l7.145 3.24h41.497l.002-5.328c.001-5.925-1.797-28.41-2.553-31.922-.383-1.781-1.172-2.25-3.784-2.25-5.375 0-13.801-2.891-19.328-6.632-4.611-3.12-11.54-10.637-12.647-13.718-.69-1.919-1.249-.652-5.675 12.85-2.344 7.15-4.592 13.364-4.995 13.809-.404.444-3.258-.43-6.343-1.943-5.196-2.548-5.65-3.049-6.159-6.808-.958-7.062-2.495-37.596-2.505-49.749-.006-6.692-.437-11.955-1.008-12.308-1.337-.826-13.982-1.521-16.502-.907M298.583 831.866c-.294.476-4.642 12.514-9.661 26.75-5.019 14.236-9.574 27.121-10.122 28.634l-.996 2.75h-31.343c-18.224 0-31.583.389-31.917.929-.316.511 9.895 9.132 22.691 19.157 12.796 10.026 23.874 18.782 24.617 19.459 1.125 1.024-.11 6.211-7.339 30.825-4.781 16.276-8.539 30.052-8.352 30.613.187.561 12.148-6.855 26.581-16.481C287.174 964.876 299.441 957 300 957c.559 0 12.826 7.876 27.258 17.502 14.433 9.626 26.354 17.161 26.493 16.746.138-.416-3.574-13.761-8.25-29.655-4.675-15.895-8.501-29.478-8.501-30.185 0-.707 11.025-9.936 24.5-20.509s24.5-19.595 24.5-20.048c0-.453-14.488-.942-32.196-1.087l-32.196-.264-8.806-25c-4.843-13.75-9.517-26.913-10.386-29.25-1.533-4.12-2.727-5.174-3.833-3.384m1399 0c-.294.476-4.642 12.514-9.661 26.75-5.019 14.236-9.574 27.121-10.122 28.634l-.996 2.75h-31.343c-18.224 0-31.583.389-31.917.929-.316.511 9.895 9.132 22.691 19.157 12.796 10.026 23.874 18.782 24.617 19.459 1.125 1.024-.11 6.211-7.339 30.825-4.781 16.276-8.539 30.052-8.352 30.613.187.561 12.148-6.855 26.581-16.481C1686.174 964.876 1698.441 957 1699 957c.559 0 12.826 7.876 27.258 17.502 14.433 9.626 26.354 17.161 26.493 16.746.138-.416-3.574-13.761-8.25-29.655-4.675-15.895-8.501-29.478-8.501-30.185 0-.707 11.025-9.936 24.5-20.509s24.5-19.595 24.5-20.048c0-.453-14.488-.942-32.196-1.087l-32.196-.264-8.806-25c-4.843-13.75-9.517-26.913-10.386-29.25-1.533-4.12-2.727-5.174-3.833-3.384M1014 837.972c0 1.757.942 6.87 2.094 11.361 2.805 10.942 2.322 18.706-1.397 22.425-1.687 1.687-3.009 2.315-3.593 1.706-1.776-1.856-4.198-12.036-4.792-20.15l-.6-8.186-6.606-.688c-3.633-.379-9.981-1.549-14.106-2.599l-7.5-1.91-2 2.316a544.648 544.648 0 0 0-5.616 6.687l-3.617 4.371-4.68-1.179c-7.436-1.872-13.175.395-23.997 9.482l-3.702 3.108 2.166 4.458 2.166 4.458-2.627 5.184c-1.445 2.851-2.932 5.184-3.305 5.184-.373 0-1.974-1.237-3.558-2.75-2.841-2.715-2.898-2.724-4.37-.75-3.1 4.156-11.415 22.238-12.857 27.96-2.111 8.372-1.917 17.379.511 23.752 3.764 9.88 12.064 18.791 17.486 18.774 3.409-.01 12.811-4.922 16.835-8.795 4.362-4.198 7.098-9.056 8.045-14.281.358-1.975 1.656-4.534 2.885-5.688 2.575-2.417 10.418-6.168 12.966-6.2 2.725-.035 1.984 4.228-5.713 32.839-1.385 5.148-2.518 10.66-2.518 12.25 0 2.609.324 2.889 3.34 2.889 1.837 0 7.304-1.374 12.149-3.052 4.845-1.679 10.204-2.916 11.91-2.75l3.101.302.282 12.363.281 12.364 8.296 10.636c10.203 13.084 12.641 16.592 12.641 18.189 0 1.493-15.189.641-24-1.346l-5.5-1.241-4.5-8.482c-6.197-11.682-10.69-15.979-19.5-18.649a4873.6 4873.6 0 0 1-21.5-6.617c-7.975-2.473-15.991-4.813-17.814-5.2l-3.315-.704 2.694 5.343c4.457 8.841 12.321 19.51 18.87 25.6 9.4 8.741 27.992 18.551 44.327 23.387 8.502 2.517 25.753 3.523 33.338 1.944l5.601-1.167-1.071-4.012c-.942-3.527-.777-4.581 1.358-8.71 2.669-5.163 18.08-21.114 24.705-25.57 3.952-2.659 4.325-2.729 6.473-1.225 3.195 2.239 5.97 1.994 10.239-.903 2.026-1.375 3.939-2.5 4.251-2.5.311 0 2.806 1.875 5.543 4.167 2.786 2.332 5.268 3.737 5.639 3.192 9.541-14.048 15.401-26.693 19.201-41.426 1.815-7.041 2.097-10.331 1.708-19.933-.398-9.785-1.001-13.089-4.049-22.16-9.987-29.721-22.867-46.075-45.955-58.35-8.102-4.308-25.623-10.698-32.993-12.033-3.693-.669-3.75-.631-3.75 2.515m-2.75 59.734c-3.845.74-2.542 1.839 6.046 5.101 4.563 1.734 10.075 4.666 12.25 6.516 4.523 3.849 10.881 5.351 14.9 3.52 1.405-.64 2.525-1.654 2.49-2.254-.07-1.209-15.635-9.023-23.436-11.766-4.903-1.724-7.752-1.984-12.25-1.117m52.949 16.23c-1.815.458-3.581 1.112-3.923 1.455-.343.343.769 2.532 2.47 4.866 2.717 3.726 3.496 4.201 6.398 3.899 6.805-.708 15.456-6.956 13.014-9.398-1.439-1.439-13.347-1.984-17.959-.822m275.622 30.814-41.68.272-.62 5.739c-1.571 14.552-4.754 34.753-7.119 45.186-2.3 10.146-7.931 29.73-9.828 34.18-.509 1.194-.017 1.796 1.854 2.265 3.434.863 5.515 4.331 6.233 10.389l.596 5.035-9.129 13.001c-5.02 7.151-9.128 13.532-9.128 14.18 0 .648 1.571 3.987 3.49 7.419l3.49 6.241-5.564 12.922c-3.06 7.106-6.526 13.952-7.703 15.212-1.176 1.26-6.272 4.315-11.323 6.789-13.246 6.486-15.22 8.847-18.026 21.561-1.257 5.697-3.244 12.716-4.416 15.597l-2.13 5.239 23.341 22.92 23.341 22.921 2.861-2.659c5.513-5.123 22.031-24.782 32.06-38.159 20.674-27.572 38.269-58.61 50.963-89.898 2.596-6.396 2.596-6.399.676-9.5-1.056-1.706-3.284-4.407-4.952-6.002-2.987-2.858-3.155-2.891-11.349-2.262-4.574.352-10.37.921-12.878 1.265l-4.561.625-.66-12.271c-1.456-27.075-.877-32.017 5.617-47.957 3.972-9.749 8.625-17.033 15.781-24.704 4.922-5.277 6.205-7.483 8.571-14.75l2.783-8.546 4.044-.007c4.404-.008 19.504-3.366 22.612-5.029 1.339-.717 1.932-2.098 1.932-4.499 0-3.38-.092-3.459-3.75-3.226-2.062.131-22.506.361-45.429.511m-738.284 9c4.226 57.65 15.874 103.874 37.594 149.19 6.565 13.697 18.885 35.403 22.873 40.3l1.841 2.26 1.178-3c.647-1.65 1.614-10.425 2.146-19.5.533-9.075 1.352-16.892 1.821-17.371.482-.493 2.917-.167 5.609.75 2.617.892 4.79 1.621 4.829 1.621.04 0 .077-2.812.082-6.25.008-5.279.565-7.259 3.587-12.75 3.385-6.151 3.84-6.562 8.49-7.654 8.814-2.07 8.407-2.426 8.145 7.116-.308 11.245.562 12.158 13.638 14.295 5.298.866 9.926 1.28 10.285.921.642-.641-1.179-27.06-2.304-33.428-.855-4.842.922-4.14 8.822 3.487 8.356 8.067 14.619 17.112 15.451 22.312.504 3.156 1.388 4.282 5.241 6.681a529.218 529.218 0 0 1 7.607 4.828c2.779 1.816 2.673 1.521-1.635-4.558-10.588-14.941-19.196-30.017-29.323-51.36-3.095-6.523-5.886-11.601-6.203-11.285-.316.317-1.095 3.179-1.73 6.361-.957 4.791-1.538 5.839-3.385 6.106-4.422.638-9.396-2.133-17.793-9.911-6.484-6.008-9.614-8.187-12.974-9.033-2.436-.614-4.429-1.308-4.429-1.544 0-.235 1.861-3.819 4.135-7.962 3.517-6.408 4.451-7.451 6.25-6.973 3.82 1.015 22.579 2.971 23.137 2.413.3-.3-1.04-6.572-2.978-13.937-4.044-15.375-8.044-38.17-9.059-51.625l-.697-9.25H600.896l.641 8.75m123.468-7c.011 4.29 4.089 28.755 6.459 38.75 11.316 47.725 34.923 94.198 65.693 129.323l2.911 3.324 45.216-44.318c24.869-24.375 49.828-48.794 55.466-54.264 5.638-5.469 10.25-10.294 10.25-10.72 0-.427-2.445-4.528-5.434-9.113-5.809-8.912-14.894-26.758-16.714-32.832l-1.106-3.69-11.177-2.196-11.178-2.197-2.352-6.909-2.352-6.908h-67.843c-63.948 0-67.844.1-67.839 1.75m399.601.5c-2.002 10.425-5.438 22.826-8.54 30.826l-3.713 9.576 7.573 3.382c4.166 1.86 11.849 5.651 17.074 8.424l9.5 5.042 3.5-1.748c4.634-2.315 11.662-2.211 21.01.311l7.647 2.064 5.671 7.975 5.671 7.976-5.905 8.782-5.906 8.783 6.156-.834c7.939-1.077 11.833-2.386 17.53-5.895 3.975-2.448 14.289-5.914 17.601-5.914.581 0 1.855 2.25 2.831 5l1.776 4.999 2.763-2.042c1.571-1.162 6.407-2.72 11.209-3.612 4.645-.862 10.456-2.091 12.913-2.731l4.467-1.162 3.855-10.976c6.858-19.526 12.696-45.195 14.297-62.862l.69-7.614h-149.238l-.432 2.25m-258.831 126.5-54.939 54.75 5.832 5.275c21.857 19.771 58.358 41.211 90.441 53.125 23.632 8.775 54.438 15.823 77.257 17.674l8.634.701v-153.916l-7.656-1.191c-9.096-1.414-25.68-6.807-34.515-11.224-8.4-4.199-21.608-13.011-25.266-16.856-1.615-1.699-3.367-3.088-3.893-3.088-.526 0-25.678 24.638-55.895 54.75m140.975-22.061c-1.647.431-1.75 4.938-1.75 76.884V1205h3.539c20.376 0 58.989-8.72 88.84-20.063l13.331-5.065-1.894-7.061c-4.192-15.631-6.536-17.146-28.598-18.484l-10.718-.65-10-7.549c-13.548-10.227-18.611-15.658-23.153-24.834-4.234-8.552-7.988-11.893-14.54-12.941-2.118-.339-4.025-.897-4.238-1.241-.212-.344.696-4.672 2.019-9.619 1.323-4.946 2.407-9.294 2.409-9.661.001-.368-1.596-1.657-3.551-2.865-4.074-2.518-4.124-.834.622-20.794 1.613-6.779 2.932-12.517 2.932-12.75 0-.553-12.981-.327-15.25.266m-219.058 116.132c-2.588 11.924-5.167 25.054-5.731 29.179-1.136 8.313-3.34 13.601-8.039 19.287l-3.129 3.788-8.59-.288-8.59-.287-4.431-5.5c-2.438-3.025-6.041-7.266-8.008-9.424l-3.577-3.925-8.151 8.818-8.15 8.817 8.102 7.48c25.676 23.705 60.521 47.16 94.102 63.342 49.382 23.795 100.368 36.719 155.75 39.477l13.75.685v-100.997l-10.75-.698c-65.151-4.232-124.415-28.07-175.952-70.775-5.939-4.921-11.496-9.332-12.349-9.802-1.324-.73-2.239 2.314-6.257 20.823m-409.844 31.902-10.489 29.777-31.758.264c-24.657.205-31.666.54-31.347 1.499.227.679 11.175 9.707 24.329 20.063 13.154 10.356 23.808 19.356 23.675 20.001-.133.645-4.072 14.184-8.753 30.087-4.681 15.902-8.286 29.138-8.011 29.413.275.275 12.48-7.485 27.122-17.245l26.623-17.745 26.377 17.581c14.508 9.67 26.761 17.582 27.228 17.582.468 0-2.91-12.713-7.506-28.25s-8.613-29.213-8.928-30.39c-.49-1.836 3.025-4.968 24.694-22l25.265-19.86-32.546-.263-32.547-.264-10.474-29.682c-5.761-16.325-10.922-29.831-11.47-30.014-.547-.182-5.716 13.068-11.484 29.446M1610.2 1172.75c-.548 1.513-5.052 14.225-10.01 28.25s-9.327 26.287-9.709 27.25c-.641 1.615-3.121 1.75-32.088 1.75-24.48 0-31.38.275-31.333 1.25.033.688 10.806 9.575 23.94 19.75 13.134 10.175 23.912 18.95 23.95 19.5.039.55-3.8 14.196-8.531 30.325-4.731 16.129-8.338 29.59-8.014 29.913.324.324 12.515-7.361 27.092-17.077l26.503-17.665 26.503 17.665c14.577 9.716 26.777 17.392 27.111 17.058.335-.334-3.297-13.903-8.069-30.152-4.773-16.249-8.404-29.986-8.07-30.527.334-.54 11.665-9.658 25.179-20.261l24.571-19.279-32.52-.264-32.519-.263-.991-2.737c-.545-1.505-5.047-14.211-10.005-28.236-10.745-30.397-10.205-29-11.199-29-.438 0-1.244 1.237-1.791 2.75m-395.542 12.581c-5.498 4.944-5.824 5.491-5.548 9.315.272 3.761-.26 4.723-7.168 12.958-12.79 15.248-13.204 15.9-12.444 19.606.371 1.81 1.76 6.801 3.088 11.092s2.414 10.22 2.414 13.177c0 4.987-.268 5.597-3.718 8.44-5.47 4.509-12.388 6.575-21.782 6.505-9.745-.072-15.493-2.155-15.514-5.623-.031-5.261-.937-6.276-7.272-8.143-10.865-3.201-14.625-9.278-24.658-39.846l-3.18-9.688-4.688 2.015c-27.827 11.962-77.551 22.861-104.294 22.861H1005v100l8.75-.011c27.948-.034 70.258-7.738 104.25-18.983 54.493-18.027 101.385-45.423 144.978-84.701 1.271-1.146-1.521-4.333-19.991-22.819-11.808-11.817-21.698-21.468-21.978-21.447-.28.021-3.138 2.403-6.351 5.292M711.25 1198.78c-4.541 1.745-4.886 2.448-2.929 5.972 1.239 2.229 1.299 2.202 6.177-2.75 5.423-5.506 4.661-6.261-3.248-3.222m-78.929 243.958a5827.76 5827.76 0 0 1-10.354 29.512l-4.175 11.75h-31.896c-17.543 0-31.896.387-31.896.861 0 .473 11.025 9.518 24.5 20.098 13.475 10.581 24.5 19.487 24.5 19.792 0 .304-3.825 13.544-8.5 29.423-4.675 15.878-8.5 29.538-8.5 30.357 0 .908 10.454-5.489 26.867-16.442l26.867-17.93 26.834 17.886c14.759 9.838 27.019 17.702 27.244 17.476.226-.225-3.503-13.735-8.287-30.021-4.783-16.286-8.47-30.202-8.192-30.926.278-.723 11.229-9.73 24.336-20.016 13.107-10.286 23.979-19.113 24.16-19.616.193-.537-12.996-1.023-31.926-1.178l-32.254-.264-10.223-29c-6.008-17.041-10.781-29.108-11.575-29.262-.921-.179-3.316 5.385-7.53 17.5m698.23 4.012c-4.229 11.963-8.896 25.237-10.37 29.5l-2.681 7.749-31.833.001c-25.016 0-31.747.268-31.43 1.25.223.688 11.173 9.74 24.334 20.118 13.161 10.377 23.878 19.377 23.815 20-.063.622-4.015 14.355-8.783 30.516-4.768 16.161-8.52 29.533-8.337 29.715.183.183 12.427-7.73 27.21-17.583 14.783-9.853 27.361-17.629 27.951-17.28.59.35 12.469 8.229 26.397 17.509 13.928 9.28 25.667 16.734 26.088 16.564.42-.17-2.959-12.909-7.51-28.309s-8.517-28.934-8.814-30.075c-.453-1.746 3.416-5.157 24.379-21.5 13.704-10.684 24.943-19.763 24.975-20.175.032-.412-14.481-.75-32.251-.75h-32.309L1351 1454.5c-5.735-16.295-10.914-29.5-11.57-29.5-.654 0-4.649 9.787-8.879 21.75m-297.013 50.408c-.258.738-.148 2.776.246 4.529.559 2.488 4.328 6.368 17.216 17.721 9.075 7.994 16.97 14.547 17.545 14.563 1.997.055 17.414-5.476 17.521-6.286.06-.448-4.454-6.941-10.029-14.428-5.576-7.488-10.533-14.321-11.016-15.186-1.215-2.174-30.742-3.03-31.483-.913m-45.78 48.96c-.759 1.86-5.6 15.419-10.759 30.132L967.62 1603h-31.81c-17.496 0-31.81.387-31.81.861 0 .473 11.023 9.516 24.495 20.095 21.011 16.498 24.416 19.54 23.937 21.389-.308 1.185-4.283 14.755-8.834 30.155-4.551 15.4-7.934 28.138-7.518 28.306.417.169 12.665-7.631 27.219-17.331l26.462-17.638 26.623 17.745c14.642 9.76 26.826 17.542 27.074 17.293.368-.368-5.764-21.978-15.76-55.536l-1.537-5.16 24.855-19.34c13.67-10.636 24.884-19.67 24.92-20.075.035-.405-14.442-.855-32.172-1l-32.237-.264-10.202-28.889c-5.612-15.889-10.649-29.335-11.195-29.881-.657-.657-1.46.15-2.372 2.388" />
</svg>