<svg xmlns="http://www.w3.org/2000/svg" viewBox="0 0 94 85">
  <path
    d="M.037 57.292c-.037-2.05.004-3.615 0-5.461C.022 43.764 0 35.74 0 27.24c4.204-.03 8.632-.076 12.452-.051 4.15.03 7.844-.02 12.001.013 9.208.081 17.952.081 26.716.081l.106-14.518-.016-8.83c.014-1.195 0-2.61 0-3.936l1.685 1.567 1.685 1.567L58 6.268c9.06 9.111 17.93 17.634 26.991 26.742 2.966 3.005 5.706 5.744 8.525 8.465.617.61.62.602-.016 1.266a136.777 136.777 0 0 1-5.965 6.183c-3.012 2.859-5.758 5.508-8.418 8.242-8.426 8.66-25.823 25.803-25.823 25.803l-1.944 1.8s-.023-11.492.017-16.835c0 0 .071-7.14.071-10.567-8.323 0-15.887 0-23.915-.07-6.483-.023-12.505.023-18.965-.005-2.813-.025-6.147-.05-8.52 0Z" />
</svg>