<svg xmlns="http://www.w3.org/2000/svg">
  <path
    d="M94.336 28.081c.037 2.05-.003 3.615 0 5.461.015 8.067.037 16.09.037 24.59-4.204.03-8.632.076-12.451.052-4.15-.03-7.844.018-12.002-.014-9.208-.081-17.952-.081-26.716-.081l-.106 14.519.016 8.83c-.014 1.194 0 2.609 0 3.935l-1.685-1.567-1.685-1.567-3.37-3.134c-9.06-9.111-17.93-17.634-26.992-26.742-2.966-3.005-5.706-5.744-8.524-8.465-.618-.61-.622-.602.015-1.266a136.844 136.844 0 0 1 5.965-6.182c3.012-2.86 5.758-5.509 8.418-8.243C23.682 19.547 41.08 2.404 41.08 2.404l1.944-1.8s.023 11.492-.017 16.835c0 0-.071 7.14-.071 10.567 8.323 0 15.887 0 23.915.07 6.484.024 12.505-.023 18.965.005 2.813.025 6.147.05 8.521 0Z" />
</svg>