<svg xmlns="http://www.w3.org/2000/svg" width="86" height="95" fill="none"><path fill="#D6D6D6" d="M27.977.537c2.05-.037 3.614.004 5.46 0C41.505.522 49.527.5 58.027.5c.03 4.204.076 8.632.052 12.452-.03 4.15.018 7.844-.014 12.001-.081 9.208-.081 17.952-.081 26.716l14.519.106 8.83-.016c1.194.014 2.61 0 3.935 0l-1.567 1.685-1.567 1.685L79 58.5c-9.111 9.06-17.634 17.93-26.742 26.991-3.004 2.966-5.744 5.706-8.465 8.525-.61.617-.602.62-1.266-.016a136.827 136.827 0 0 1-6.182-5.965c-2.86-3.012-5.509-5.758-8.243-8.418C19.442 71.191 2.3 53.794 2.3 53.794L.5 51.85s11.49-.023 16.834.017c0 0 7.14.071 10.567.071 0-8.323 0-15.887.07-23.915.024-6.483-.023-12.505.006-18.965.025-2.813.05-6.147 0-8.52Z"/></svg>